<svg width="671" height="346" viewBox="0 0 671 346" fill="none" xmlns="http://www.w3.org/2000/svg">
<g filter="url(#filter0_f_99_371)">
<circle cx="391.561" cy="83.5467" r="55.4344" fill="white"/>
</g>
<g filter="url(#filter1_f_99_371)">
<circle cx="183.901" cy="118.744" r="46.6353" fill="white"/>
</g>
<g filter="url(#filter2_f_99_371)">
<circle cx="465.473" cy="197.936" r="37.8362" fill="white"/>
</g>
<path d="M174.548 175.812C176.143 171.487 172.954 167.504 169.025 165.911C164.185 163.919 158.719 163.976 153.765 162.155C142.092 157.944 133.665 149.067 130.419 137.06C124.497 115.152 131.615 89.943 148.982 75.1478C165.95 60.6371 191.574 56.8245 211.389 67.8071C220.614 72.9285 228.244 80.7814 233.027 90.1706C238.892 101.552 239.347 114.184 237.184 126.647C234.906 139.848 230.294 154.359 217.938 161.529C214.977 163.293 211.788 164.26 208.371 164.83C205.183 165.342 201.823 165.512 198.862 166.935C194.99 168.756 191.859 173.251 193.624 177.576C194.022 178.6 195.674 178.145 195.275 177.121C193.908 173.764 196.129 170.406 199.09 168.756C202.165 167.049 205.98 166.992 209.396 166.423C214.635 165.569 219.304 163.293 223.347 159.879C232.685 151.969 236.557 139.848 238.721 128.24C240.885 116.404 241.056 104.34 236.273 93.0728C232.287 83.6266 225.511 75.3754 217.14 69.4573C199.261 56.7676 175.232 56.9383 156.498 67.8071C137.309 78.9035 126.319 100.641 126.718 122.549C126.946 135.012 130.533 147.986 140.27 156.351C144.768 160.163 150.121 162.952 155.758 164.602C160.826 166.081 176.143 166.423 172.84 175.357C172.498 176.381 174.15 176.836 174.548 175.812Z" fill="black"/>
<path d="M173.523 177.633C177.395 179.056 181.381 179.398 185.481 179.17C187.474 179.056 189.524 178.828 191.517 178.601C192.656 178.43 194.136 178.544 194.933 177.577C195.616 176.723 194.421 175.528 193.737 176.382C193.111 177.178 190.15 177.064 189.011 177.235C187.36 177.406 185.652 177.52 184 177.577C180.584 177.633 177.224 177.235 173.979 176.04C172.954 175.642 172.498 177.292 173.523 177.633Z" fill="black"/>
<path d="M172.385 175.698C171.018 180.592 171.018 185.941 173.068 190.664C174.776 194.705 180.299 194.306 184.058 194.363C187.645 194.42 193.453 194.989 195.275 191.063C197.439 186.453 196.926 180.251 195.901 175.471C195.674 174.39 194.022 174.845 194.25 175.926C195.104 179.909 195.275 184.006 194.421 188.047C193.908 190.55 192.826 192.03 190.15 192.371C188.157 192.656 186.107 192.656 184.114 192.656C182.008 192.599 179.844 192.428 177.737 192.087C175.346 191.689 174.548 190.038 173.922 187.876C172.84 184.006 172.954 180.023 174.036 176.154C174.321 175.072 172.669 174.617 172.385 175.698Z" fill="black"/>
<path d="M172.669 183.152C180.356 184.803 187.816 184.803 195.503 183.096C196.585 182.868 196.129 181.218 195.047 181.445C187.645 183.039 180.527 183.096 173.125 181.502C172.043 181.275 171.588 182.925 172.669 183.152Z" fill="black"/>
<path d="M172.726 188.445C180.47 190.55 188.499 191.404 195.958 187.933C196.926 187.477 196.072 185.998 195.104 186.453C188.1 189.697 180.413 188.729 173.182 186.795C172.1 186.51 171.644 188.16 172.726 188.445Z" fill="black"/>
<path d="M177.509 194.761C178.364 197.549 178.933 201.021 180.356 203.581C181.438 205.516 183.488 205.744 185.538 205.402C191.232 204.492 191.46 198.232 192.086 193.509C192.2 192.428 190.492 192.428 190.378 193.509C189.923 197.151 189.581 203.752 184.627 203.809C180.812 203.866 180.072 197.151 179.161 194.306C178.819 193.225 177.168 193.68 177.509 194.761Z" fill="black"/>
<path d="M181.666 177.234C180.584 167.959 178.876 158.854 176.427 149.863C175.175 145.14 173.694 140.474 172.1 135.808C171.075 132.849 170.05 129.321 167.431 127.329C162.477 123.516 155.815 128.41 159.459 134.044C161.167 136.661 164.356 137.515 167.26 137.913C171.246 138.482 175.573 138.596 179.331 137.117C183.773 135.353 189.979 128.069 184.969 123.516C183.09 121.809 180.129 122.208 178.42 123.972C176.484 126.02 176.541 129.207 177.566 131.597C180.072 137.401 187.303 139.165 193.054 138.824C195.958 138.653 199.432 138.027 201.083 135.296C202.279 133.361 202.165 130.63 200.229 129.264C198.008 127.67 194.819 128.695 193.168 130.63C190.435 133.816 190.72 139.279 190.321 143.205C189.182 154.814 188.043 166.366 186.905 177.974C186.791 179.055 188.499 179.055 188.613 177.974C189.752 166.195 190.891 154.416 192.086 142.636C192.371 140.019 192.371 137.174 193.054 134.613C193.453 133.19 194.079 131.711 195.332 130.857C195.901 130.459 196.869 130.174 197.553 130.174C199.546 130.174 200.571 132.849 199.546 134.442C197.04 138.425 189.125 137.458 185.367 136.206C183.203 135.466 181.154 134.215 179.844 132.337C179.047 131.199 178.477 129.776 178.477 128.353C178.42 125.565 181.666 122.265 183.944 125.337C185.823 127.898 184.342 131.142 182.292 133.19C180.129 135.353 177.111 136.263 174.093 136.548C171.36 136.775 168.456 136.605 165.836 136.035C163.103 135.466 158.32 132.735 160.313 129.15C162.648 125.053 167.374 129.435 168.57 131.881C169.822 134.385 170.619 137.23 171.474 139.848C175.459 152.026 178.25 164.545 179.787 177.291C180.072 178.316 181.78 178.316 181.666 177.234Z" fill="black"/>
<path d="M183.887 204.606C181.324 212.516 178.819 220.54 177.623 228.791C176.712 235.164 175.801 243.074 178.534 249.163C180.299 253.089 184.627 256.105 189.011 254.455C193.225 252.861 193.51 247.569 190.777 244.497C187.36 240.684 181.381 241.936 177.908 245.009C173.239 249.276 171.36 256.56 170.733 262.592C169.879 270.559 173.41 278.525 169.708 286.037C168.228 288.996 166.064 292.524 162.648 293.435C160.484 294.004 157.238 292.922 156.783 290.419C155.929 286.321 161.338 286.094 163.73 287.516C170.506 291.5 172.897 299.41 174.776 306.523C176.2 311.872 176.427 316.993 176.427 322.456C176.427 323.537 178.136 323.537 178.136 322.456C178.136 318.017 178.136 313.693 177.225 309.311C176.086 303.962 174.776 297.816 171.644 293.264C169.139 289.622 164.811 284.33 159.858 284.899C155.359 285.411 153.366 290.419 156.783 293.548C160.769 297.247 165.893 294.573 168.683 290.931C172.669 285.866 173.751 280.176 172.84 273.916C171.644 266.006 172.157 257.528 176.029 250.301C177.908 246.83 181.154 243.586 185.367 243.757C189.581 243.927 193.624 250.244 188.727 252.691C183.659 255.195 179.958 249.39 179.104 245.293C178.25 241.082 178.477 236.53 178.876 232.262C179.787 222.93 182.691 213.939 185.538 205.062C185.823 203.98 184.171 203.582 183.887 204.606Z" fill="black"/>
<path d="M314.409 221.452C301.588 219.772 292.252 205.093 291.94 192.902C291.629 180.4 299.907 167.213 309.803 160.06C320.384 152.409 335.259 150.606 346.525 157.883C357.541 164.974 366.317 178.223 365.882 191.596C365.384 206.524 354.429 218.964 339.927 222.011C338.745 222.26 339.243 224.064 340.425 223.815C353.994 220.954 364.948 210.131 367.251 196.385C369.803 181.457 361.711 167.275 350.197 158.256C339.118 149.548 323.558 149.548 311.608 156.701C300.281 163.543 291.256 176.916 290.198 190.227C289.077 204.347 299.783 221.452 314.471 223.38C315.592 223.504 315.592 221.638 314.409 221.452Z" fill="black"/>
<path d="M314.036 223.193C314.907 225.992 315.467 228.791 315.467 231.715C315.467 232.71 317.085 233.021 317.272 231.963C317.708 229.662 324.305 229.662 326.048 229.6C328.413 229.538 330.841 229.911 333.143 230.346C334.45 230.595 336.38 230.844 337.5 231.652C339.616 233.27 336.691 234.265 335.197 234.7C332.646 235.509 329.969 235.695 327.293 235.509C324.492 235.322 318.144 234.762 317.272 231.466C316.961 230.284 315.156 230.782 315.467 231.963C316.401 235.322 319.949 236.131 322.998 236.815C326.67 237.624 330.592 237.748 334.326 236.877C336.504 236.38 340.052 235.695 340.052 233.083C340.052 231.528 339.554 230.719 338.185 229.973C334.886 228.231 330.156 227.796 326.421 227.734C323.621 227.734 316.152 227.734 315.467 231.466C316.09 231.528 316.712 231.652 317.272 231.715C317.272 228.605 316.712 225.619 315.778 222.696C315.467 221.576 313.662 222.074 314.036 223.193Z" fill="black"/>
<path d="M340.488 231.964C340.55 229.04 340.737 226.117 340.799 223.255C340.799 222.074 338.932 222.074 338.932 223.255C338.869 226.179 338.745 229.102 338.62 231.964C338.558 233.145 340.425 233.145 340.488 231.964Z" fill="black"/>
<path d="M315.778 233.394C316.898 236.753 315.903 238.93 319.575 240.672C322.936 242.289 326.795 242.538 330.405 242.351C333.143 242.227 336.94 242.351 339.056 240.236C341.359 237.997 340.799 234.576 340.238 231.715C339.99 230.533 338.185 231.031 338.434 232.212C339.056 235.385 339.429 238.93 335.446 239.987C333.268 240.547 330.529 240.547 328.351 240.547C325.923 240.547 323.558 240.236 321.318 239.365C318.081 238.121 318.392 235.571 317.521 232.897C317.21 231.777 315.405 232.275 315.778 233.394Z" fill="black"/>
<path d="M317.646 239.179C317.459 241.978 318.766 244.404 320.882 246.208C322.998 248.011 326.172 250.064 329.036 250.437C334.45 251.059 339.367 244.217 340.114 239.552C340.301 238.37 338.496 237.873 338.309 239.055C337.687 242.973 333.392 249.504 328.662 248.509C324.554 247.638 319.264 243.72 319.513 239.179C319.575 237.935 317.708 237.935 317.646 239.179Z" fill="black"/>
<path d="M328.537 231.59C327.666 220.954 326.795 210.317 325.861 199.681C325.736 198.499 323.869 198.499 323.994 199.681C324.927 210.317 325.799 220.954 326.67 231.59C326.732 232.772 328.6 232.772 328.537 231.59Z" fill="black"/>
<path d="M323.87 197.754C321.691 198.313 319.513 198.749 317.272 198.873C315.778 198.998 314.285 199.122 312.978 197.94C312.666 197.567 312.355 197.194 312.044 196.758C310.55 194.395 311.422 192.902 314.596 192.218C315.343 192.653 316.09 191.969 315.965 191.16C315.405 187.926 317.023 184.256 320.322 183.261C323.683 182.266 327.044 184.629 327.666 187.926C327.791 188.61 328.786 188.859 329.222 188.361C332.459 184.443 338.683 186.869 337.811 192.093C337.687 192.84 338.434 193.586 339.181 193.151C341.919 193.773 342.542 194.83 341.048 196.323C340.114 196.447 339.181 196.572 338.247 196.696C336.691 196.883 335.073 197.069 333.517 197.194C330.342 197.505 327.23 197.691 324.056 197.754C322.874 197.754 322.874 199.62 324.056 199.62C328.04 199.557 331.961 199.246 335.882 198.873C337.811 198.687 341.67 198.935 343.164 197.318C345.654 194.581 341.359 189.792 338.185 191.596C338.62 191.969 339.118 192.28 339.554 192.653C340.737 185.749 332.459 181.519 327.853 187.117C328.351 187.242 328.911 187.366 329.409 187.553C328.538 183.261 324.056 180.338 319.762 181.582C315.405 182.826 313.351 187.615 314.098 191.782C314.534 191.409 315.031 191.098 315.467 190.725C311.422 188.424 308.496 193.151 309.866 196.821C312.168 202.73 319.513 200.864 324.243 199.62C325.55 199.246 325.052 197.443 323.87 197.754Z" fill="black"/>
<path d="M331.152 249.939C332.583 259.829 333.953 269.781 335.384 279.671C336.878 290.12 338.372 300.508 338.309 311.082C338.309 312.263 340.177 312.263 340.177 311.082C340.239 300.756 338.807 290.556 337.376 280.355C335.882 270.03 334.45 259.704 332.957 249.441C332.77 248.26 330.965 248.757 331.152 249.939Z" fill="black"/>
<path d="M646.374 254.671C659.196 252.992 668.532 238.313 668.843 226.121C669.154 213.619 660.876 200.433 650.98 193.28C640.399 185.629 625.524 183.825 614.258 191.103C603.242 198.194 594.466 211.442 594.902 224.815C595.4 239.743 606.354 252.183 620.856 255.231C622.038 255.48 621.54 257.284 620.358 257.035C606.79 254.174 595.835 243.351 593.532 229.605C590.981 214.677 599.072 200.495 610.586 191.476C621.665 182.768 637.225 182.768 649.175 189.921C660.503 196.763 669.527 210.136 670.586 223.447C671.706 237.566 661.001 254.671 646.312 256.599C645.192 256.724 645.192 254.858 646.374 254.671Z" fill="black"/>
<path d="M646.748 256.413C645.876 259.212 645.316 262.011 645.316 264.934C645.316 265.929 643.698 266.24 643.511 265.183C643.076 262.882 636.478 262.882 634.735 262.819C632.37 262.757 629.943 263.13 627.64 263.566C626.333 263.815 624.404 264.063 623.283 264.872C621.167 266.489 624.092 267.484 625.586 267.92C628.138 268.728 630.814 268.915 633.491 268.728C636.291 268.542 642.64 267.982 643.511 264.685C643.822 263.504 645.627 264.001 645.316 265.183C644.383 268.542 640.835 269.35 637.785 270.035C634.113 270.843 630.192 270.968 626.457 270.097C624.279 269.599 620.731 268.915 620.731 266.303C620.731 264.748 621.229 263.939 622.599 263.193C625.897 261.451 630.628 261.016 634.362 260.953C637.163 260.953 644.632 260.953 645.316 264.685C644.694 264.748 644.071 264.872 643.511 264.934C643.511 261.824 644.071 258.839 645.005 255.915C645.316 254.796 647.121 255.293 646.748 256.413Z" fill="black"/>
<path d="M620.296 265.183C620.233 262.26 620.047 259.336 619.984 256.475C619.984 255.293 621.852 255.293 621.852 256.475C621.914 259.399 622.038 262.322 622.163 265.183C622.225 266.365 620.358 266.365 620.296 265.183Z" fill="black"/>
<path d="M645.005 266.614C643.884 269.973 644.88 272.15 641.208 273.891C637.847 275.509 633.988 275.757 630.378 275.571C627.64 275.446 623.843 275.571 621.727 273.456C619.424 271.217 619.984 267.796 620.544 264.935C620.793 263.753 622.598 264.25 622.349 265.432C621.727 268.604 621.354 272.15 625.337 273.207C627.515 273.767 630.254 273.767 632.432 273.767C634.86 273.767 637.225 273.456 639.465 272.585C642.702 271.341 642.391 268.791 643.262 266.116C643.573 264.997 645.378 265.494 645.005 266.614Z" fill="black"/>
<path d="M643.138 272.398C643.324 275.197 642.017 277.623 639.901 279.426C637.785 281.23 634.611 283.283 631.748 283.656C626.333 284.278 621.416 277.436 620.669 272.771C620.482 271.589 622.287 271.092 622.474 272.273C623.096 276.192 627.391 282.723 632.121 281.728C636.229 280.857 641.519 276.938 641.27 272.398C641.208 271.154 643.075 271.154 643.138 272.398Z" fill="black"/>
<path d="M632.245 264.81C633.117 254.173 633.988 243.537 634.922 232.901C635.046 231.719 636.913 231.719 636.789 232.901C635.855 243.537 634.984 254.173 634.113 264.81C634.05 265.991 632.183 265.991 632.245 264.81Z" fill="black"/>
<path d="M636.914 230.973C639.092 231.533 641.271 231.969 643.511 232.093C645.005 232.217 646.499 232.342 647.806 231.16C648.117 230.787 648.428 230.414 648.739 229.978C650.233 227.615 649.362 226.122 646.187 225.438C645.441 225.873 644.694 225.189 644.818 224.38C645.378 221.146 643.76 217.476 640.461 216.481C637.1 215.485 633.739 217.849 633.117 221.146C632.993 221.83 631.997 222.079 631.561 221.581C628.325 217.662 622.101 220.088 622.972 225.313C623.096 226.059 622.35 226.806 621.603 226.371C618.864 226.993 618.242 228.05 619.735 229.543C620.669 229.667 621.603 229.791 622.536 229.916C624.092 230.102 625.71 230.289 627.266 230.414C630.441 230.725 633.553 230.911 636.727 230.973C637.91 230.973 637.91 232.839 636.727 232.839C632.744 232.777 628.822 232.466 624.901 232.093C622.972 231.906 619.113 232.155 617.619 230.538C615.13 227.801 619.424 223.012 622.598 224.816C622.163 225.189 621.665 225.5 621.229 225.873C620.047 218.969 628.325 214.739 632.93 220.337C632.432 220.461 631.872 220.586 631.374 220.772C632.246 216.481 636.727 213.557 641.022 214.801C645.378 216.045 647.432 220.835 646.685 225.002C646.25 224.629 645.752 224.318 645.316 223.945C649.362 221.643 652.287 226.371 650.918 230.04C648.615 235.949 641.27 234.083 636.54 232.839C635.233 232.466 635.731 230.662 636.914 230.973Z" fill="black"/>
<path d="M629.631 283.159C628.2 293.049 626.831 303.001 625.399 312.89C623.905 323.34 622.412 333.727 622.474 344.301C622.474 345.483 620.607 345.483 620.607 344.301C620.544 333.976 621.976 323.775 623.407 313.575C624.901 303.249 626.333 292.924 627.827 282.661C628.013 281.479 629.818 281.977 629.631 283.159Z" fill="black"/>
<path d="M373.6 159.189C375.405 147.62 364.824 140.716 356.421 135.242C345.094 127.903 338.309 117.453 333.766 104.889C331.276 98.1087 329.471 90.8935 329.907 83.6161C330.281 76.5875 332.895 69.8699 336.007 63.6499C341.608 52.3294 348.89 41.5688 358.786 33.545C368.558 25.5834 380.633 20.7318 393.33 21.0428C405.031 21.3538 416.358 25.5834 425.943 32.1144C435.964 38.9564 445.176 48.9084 449.159 60.5399C453.516 73.3531 451.462 88.7165 447.167 101.281C442.499 114.841 432.914 125.601 421.151 133.625C415.798 137.295 409.512 139.783 404.408 143.764C400.052 147.122 396.94 152.409 398.745 158.007C399.118 159.127 400.923 158.629 400.55 157.51C397.873 149.175 406.587 144.199 412.624 140.902C417.728 138.166 422.582 135.056 427.126 131.51C436.711 123.984 444.429 114.343 448.599 102.836C453.018 90.6447 455.134 75.9033 451.898 63.2145C448.972 51.6452 440.881 41.5688 431.732 34.1048C413.744 19.4878 389.097 14.2008 367.998 25.148C356.919 30.9326 348.019 40.1382 341.235 50.5256C334.264 61.1619 327.542 73.9129 327.978 87.0371C328.227 94.6255 330.467 102.027 333.33 108.994C335.82 115.027 338.807 120.812 342.853 125.912C347.334 131.51 352.998 135.18 358.973 139.099C365.571 143.453 373.164 149.797 371.795 158.692C371.608 159.873 373.413 160.371 373.6 159.189Z" fill="black"/>
<path d="M372.292 160.309C377.147 161.179 382.189 160.495 387.043 160.246C389.844 160.06 392.645 159.873 395.446 159.749C396.939 159.687 399.18 159.251 400.549 159.873C405.093 161.926 401.856 164.6 400.051 165.658C395.321 168.332 388.973 168.83 383.682 169.328C380.882 169.576 378.018 170.012 375.28 168.892C372.79 167.835 366.691 161.117 372.604 160.122C373.786 159.935 373.288 158.132 372.106 158.318C369.678 158.754 368.247 160.868 368.434 163.232C368.682 166.218 371.048 168.768 373.599 170.198C377.209 172.189 381.379 171.505 385.301 171.069C389.595 170.634 393.952 170.012 398.06 168.519C400.549 167.648 403.724 166.342 404.533 163.543C405.217 161.179 403.599 159.065 401.483 158.256C397.624 156.763 392.271 158.069 388.288 158.318C383.184 158.629 377.832 159.438 372.79 158.505C371.608 158.318 371.11 160.122 372.292 160.309Z" fill="black"/>
<path d="M371.608 168.084C370.488 171.318 369.243 176.419 373.351 177.974C375.653 178.844 378.454 178.285 380.819 178.098C383.994 177.849 387.106 177.538 390.218 177.103C394.388 176.543 400.55 176.294 403.35 172.625C405.218 170.199 404.969 166.529 402.23 164.974C401.172 164.352 400.238 165.969 401.296 166.591C402.915 167.524 403.039 169.639 402.168 171.132C401.234 172.749 399.118 173.433 397.5 173.931C394.201 174.864 390.653 175.237 387.23 175.61C384.118 175.983 381.006 176.232 377.894 176.419C377.272 176.481 376.649 176.543 376.027 176.481C374.346 176.419 374.222 176.357 373.226 174.802C372.23 173.247 372.23 172.811 372.604 171.132C372.79 170.261 373.039 169.39 373.351 168.519C373.786 167.4 371.981 166.902 371.608 168.084Z" fill="black"/>
<path d="M377.272 178.346C378.766 180.15 379.388 181.892 380.322 183.944C380.695 184.815 381.068 185.562 381.878 186.059C384.118 187.552 387.977 186.681 390.467 186.495C392.458 186.308 395.757 186.495 397.313 184.94C399.491 182.825 399.243 177.662 398.994 174.925C398.869 173.744 397.002 173.744 397.126 174.925C397.375 177.6 397.687 181.456 395.57 183.385C393.703 185.002 389.658 184.753 387.168 184.815C386.297 184.877 385.052 185.002 384.18 184.815C382.064 184.38 382.189 183.198 381.566 181.705C380.819 179.964 379.886 178.471 378.641 176.978C377.832 176.107 376.525 177.413 377.272 178.346Z" fill="black"/>
<path d="M381.628 158.256C380.819 144.759 380.01 131.199 377.396 117.888C376.089 111.357 374.533 104.64 371.919 98.482C370.301 94.6256 367.375 89.7118 362.707 89.3386C358.911 89.0276 356.857 92.1998 358.413 95.683C359.844 98.8552 364.575 100.783 367.749 101.405C372.23 102.276 377.023 101.468 380.819 98.8552C383.745 96.8648 386.359 93.3816 384.803 89.7118C383.807 87.286 379.948 86.5396 378.392 88.9032C376.525 91.8888 378.143 96.1806 380.321 98.482C386.11 104.702 398.246 101.157 396.939 91.7644C396.379 87.9702 393.018 87.8458 390.653 90.396C387.666 93.5682 389.657 98.171 392.707 100.472C397.188 103.893 403.226 103.085 408.143 101.157C410.881 100.099 415.425 97.0514 414.616 93.506C413.558 88.9654 407.271 91.64 405.217 93.8792C400.923 98.482 398.246 105.448 396.255 111.357C391.276 126.099 390.715 141.835 390.218 157.261C390.155 158.443 392.022 158.443 392.085 157.261C392.583 141.835 393.081 126.037 398.184 111.295C399.491 107.625 401.047 104.018 402.915 100.597C404.408 97.9844 407.334 92.0132 411.255 92.884C415.362 93.817 409.574 98.4198 409.076 98.6686C407.645 99.4772 406.026 99.9748 404.408 100.348C400.114 101.405 394.699 101.157 392.022 97.1136C390.902 95.372 390.342 93.4438 391.898 91.64C392.583 90.8314 394.201 90.396 394.948 91.5156C395.757 92.6352 394.637 95.6208 394.014 96.5538C391.587 100.286 386.545 100.783 383.06 98.3576C381.255 97.1136 379.512 94.8122 379.512 92.5108C379.512 90.8314 380.321 88.53 382.251 89.9606C385.861 92.573 380.446 97.0514 377.956 98.2332C372.977 100.659 363.952 100.535 360.405 95.4342C359.72 94.439 359.533 93.4438 360.093 92.3864C361.027 90.5826 362.894 90.8936 364.637 91.8266C366.317 92.7596 367.687 94.439 368.62 96.0562C370.612 99.415 371.732 103.396 372.853 107.128C377.645 123.673 378.703 141.027 379.699 158.194C379.823 159.438 381.691 159.438 381.628 158.256Z" fill="black"/>
<path d="M387.417 186.868C386.981 201.112 386.483 215.418 386.047 229.661C385.861 235.633 385.425 241.79 387.354 247.575C388.724 251.68 391.836 255.91 396.504 256.407C404.595 257.216 406.649 245.46 398.558 243.656C386.981 241.106 387.728 257.092 387.23 264.12C386.11 279.857 385.363 295.656 380.881 310.833C380.57 312.014 382.313 312.45 382.686 311.33C385.487 301.876 386.857 292.11 387.79 282.283C388.226 277.182 388.599 272.144 388.91 267.044C389.222 262.005 389.284 256.781 390.218 251.805C390.653 249.565 391.462 247.202 393.578 246.082C395.695 244.963 398.62 245.087 400.487 246.58C402.666 248.259 402.479 251.556 400.549 253.36C398.06 255.661 394.512 254.355 392.396 252.302C388.662 248.695 387.977 242.91 387.852 237.996C387.728 233.02 388.039 227.982 388.226 223.006C388.599 211.001 388.973 198.935 389.408 186.93C389.284 185.624 387.417 185.624 387.417 186.868Z" fill="black"/>
<path d="M98.9006 244.37C93.9214 242.504 89.1911 240.513 85.27 236.719C81.909 233.485 79.3572 229.442 77.4278 225.212C73.5066 216.691 72.8842 207.672 76.4319 198.964C83.5895 181.05 104.004 169.045 123.112 170.849C140.103 172.404 156.224 185.28 159.771 202.26C163.195 218.681 153.796 237.092 137.987 243.188C134.813 244.432 131.265 245.427 128.838 247.977C127.842 249.097 127.158 250.403 126.909 251.896C126.66 253.264 126.971 255.192 125.477 256.063C124.543 256.561 122.925 256.436 121.867 256.499C118.631 256.685 115.456 256.81 112.22 256.872C111.037 256.872 109.73 256.934 108.548 256.561C106.432 255.877 105.809 254.135 105.374 252.207C104.502 247.977 102.884 245.987 98.9006 244.37C97.7803 243.934 97.2823 245.738 98.4027 246.173C101.639 247.48 102.822 249.221 103.569 252.642C104.004 254.508 104.502 256.25 106.12 257.432C109.668 259.982 116.017 258.676 120 258.427C122.801 258.302 127.531 258.738 128.465 255.192C128.9 253.637 128.402 252.02 129.211 250.527C129.834 249.408 130.767 248.537 131.826 247.853C133.631 246.671 135.747 245.987 137.738 245.24C153.983 239.145 164.19 221.604 161.888 204.437C159.522 186.586 143.713 172.404 126.286 169.481C106.681 166.184 85.519 177.194 76.3074 194.672C71.3905 204.002 70.7681 214.451 74.8137 224.217C76.9298 229.193 79.6684 233.982 83.5273 237.776C87.6974 241.944 92.8633 244.183 98.3404 246.236C99.5852 246.547 100.021 244.743 98.9006 244.37Z" fill="black"/>
<path d="M106.432 256.126C104.938 257.681 104.502 259.982 106.369 261.537C107.49 262.47 108.983 262.47 110.415 262.595C112.967 262.781 115.519 262.906 118.071 262.843C120.934 262.781 125.726 263.217 127.842 260.729C129.211 259.111 128.963 256.872 126.971 255.877C125.913 255.379 124.917 256.934 126.037 257.494C126.162 259.733 125.228 260.791 123.361 260.666C122.552 260.729 121.805 260.791 120.996 260.853C119.627 260.915 118.257 260.977 116.888 260.977C115.519 260.977 114.149 260.915 112.78 260.853C112.095 260.791 104.689 260.666 107.801 257.432C108.548 256.561 107.241 255.255 106.432 256.126Z" fill="black"/>
<path d="M107.054 260.852C105.747 262.532 104.315 264.895 106.12 266.761C108.174 268.876 112.656 268.316 115.207 268.192C119.253 267.943 132.635 268.005 127.406 261.039C126.722 260.106 125.104 261.039 125.788 261.972C126.286 262.594 126.784 264.149 125.975 264.833C125.539 265.206 123.983 265.206 123.423 265.331C121.307 265.704 119.191 266.015 117.075 266.202C115.456 266.326 113.838 266.45 112.22 266.388C111.286 266.388 109.979 266.513 109.108 266.139C107.49 265.331 107.241 263.651 108.361 262.221C109.108 261.226 107.801 259.919 107.054 260.852Z" fill="black"/>
<path d="M109.419 268.503C109.917 270.369 110.415 272.235 110.975 274.101C111.162 274.723 111.286 275.718 111.847 276.216C113.527 277.584 117.573 276.9 119.564 276.776C120.996 276.651 124.108 276.776 125.041 275.532C126.411 273.666 126.162 269.001 126.224 266.824C126.286 265.642 124.419 265.642 124.357 266.824C124.295 268.69 124.544 271.738 123.734 273.355C123.672 273.728 123.61 274.101 123.485 274.474C122.863 274.537 122.241 274.599 121.556 274.661C120.498 274.785 119.502 274.91 118.444 274.972C116.764 275.034 114.772 275.407 113.465 274.288C112.033 273.106 111.722 269.872 111.224 268.068C110.913 266.824 109.108 267.321 109.419 268.503Z" fill="black"/>
<path d="M115.27 256.81C111.286 243.25 108.05 229.566 105.498 215.695C105.062 216.068 104.564 216.379 104.129 216.753C106.618 218.494 108.921 220.36 111.162 222.413C111.597 222.786 112.344 222.786 112.655 222.226C114.025 219.8 114.958 217.312 115.581 214.638C115.021 214.7 114.46 214.762 113.9 214.887C115.021 216.566 116.141 218.245 117.323 219.863C117.759 220.547 118.257 221.542 119.128 221.729C121.12 222.226 123.672 218.121 124.792 216.939C124.232 216.69 123.734 216.504 123.174 216.255C124.419 230.063 117.946 243.188 119.564 256.996C119.689 258.178 121.556 258.178 121.431 256.996C119.813 243.188 126.286 230.063 125.041 216.255C124.979 215.509 124.045 214.949 123.423 215.571C122.489 216.566 120.56 219.738 118.942 218.867C118.444 218.619 117.884 217.312 117.572 216.877C116.888 215.882 116.203 214.887 115.519 213.891C115.083 213.269 114.025 213.269 113.838 214.14C113.216 216.69 112.344 218.992 111.099 221.293C111.597 221.231 112.095 221.169 112.593 221.107C110.228 218.93 107.801 217.001 105.187 215.198C104.44 214.7 103.693 215.509 103.817 216.255C106.369 230.126 109.606 243.872 113.589 257.369C113.838 258.489 115.581 257.991 115.27 256.81Z" fill="black"/>
<path d="M139.73 186.399C146.701 190.256 151.431 196.849 152.738 204.748C152.925 205.93 154.73 205.433 154.543 204.251C153.174 195.978 148.008 188.887 140.663 184.844C139.605 184.16 138.672 185.777 139.73 186.399Z" fill="black"/>
<path d="M116.888 275.781C114.461 295.685 120.685 315.34 118.631 335.244C118.506 336.426 120.373 336.426 120.498 335.244C122.552 315.34 116.328 295.685 118.755 275.781C118.88 274.599 117.013 274.599 116.888 275.781Z" fill="black"/>
<path d="M482.148 226.771C487.127 224.905 491.857 222.915 495.779 219.12C499.14 215.886 501.691 211.843 503.621 207.613C507.542 199.092 508.164 190.073 504.617 181.365C497.459 163.451 477.044 151.447 457.937 153.251C440.945 154.806 424.825 167.681 421.277 184.662C417.854 201.082 427.252 219.494 443.061 225.589C446.236 226.833 449.783 227.828 452.211 230.379C453.206 231.498 453.891 232.804 454.14 234.297C454.389 235.666 454.078 237.594 455.571 238.465C456.505 238.962 458.123 238.838 459.181 238.9C462.418 239.087 465.592 239.211 468.829 239.273C470.011 239.273 471.318 239.335 472.501 238.962C474.617 238.278 475.239 236.536 475.675 234.608C476.546 230.379 478.165 228.388 482.148 226.771C483.268 226.336 483.766 228.139 482.646 228.575C479.409 229.881 478.227 231.623 477.48 235.044C477.044 236.91 476.546 238.651 474.928 239.833C471.38 242.383 465.032 241.077 461.049 240.828C458.248 240.704 453.518 241.139 452.584 237.594C452.148 236.039 452.646 234.422 451.837 232.929C451.215 231.809 450.281 230.938 449.223 230.254C447.418 229.072 445.302 228.388 443.31 227.642C427.066 221.546 416.858 204.006 419.161 186.839C421.526 168.987 437.335 154.806 454.762 151.882C474.368 148.586 495.53 159.595 504.741 177.073C509.658 186.403 510.281 196.853 506.235 206.618C504.119 211.594 501.38 216.384 497.521 220.178C493.351 224.345 488.185 226.584 482.708 228.637C481.463 228.948 481.028 227.144 482.148 226.771Z" fill="black"/>
<path d="M474.617 238.527C476.111 240.082 476.546 242.384 474.679 243.939C473.559 244.872 472.065 244.872 470.634 244.996C468.082 245.183 465.53 245.307 462.978 245.245C460.115 245.183 455.323 245.618 453.206 243.13C451.837 241.513 452.086 239.274 454.078 238.278C455.136 237.781 456.132 239.336 455.011 239.896C454.887 242.135 455.82 243.192 457.688 243.068C458.497 243.13 459.244 243.192 460.053 243.254C461.422 243.317 462.791 243.379 464.161 243.379C465.53 243.379 466.899 243.317 468.268 243.254C468.953 243.192 476.36 243.068 473.248 239.833C472.501 238.963 473.808 237.656 474.617 238.527Z" fill="black"/>
<path d="M473.994 243.254C475.301 244.933 476.733 247.297 474.928 249.163C472.874 251.277 468.393 250.718 465.841 250.593C461.795 250.344 448.414 250.407 453.642 243.44C454.327 242.507 455.945 243.44 455.26 244.373C454.762 244.995 454.264 246.55 455.073 247.234C455.509 247.608 457.065 247.608 457.625 247.732C459.741 248.105 461.858 248.416 463.974 248.603C465.592 248.727 467.21 248.852 468.829 248.789C469.762 248.789 471.069 248.914 471.941 248.541C473.559 247.732 473.808 246.053 472.687 244.622C471.941 243.627 473.248 242.321 473.994 243.254Z" fill="black"/>
<path d="M471.629 250.905C471.131 252.771 470.634 254.637 470.073 256.503C469.887 257.125 469.762 258.12 469.202 258.617C467.522 259.986 463.476 259.302 461.484 259.177C460.053 259.053 456.941 259.177 456.007 257.933C454.638 256.067 454.887 251.402 454.825 249.225C454.762 248.043 456.63 248.043 456.692 249.225C456.754 251.091 456.505 254.139 457.314 255.756C457.376 256.129 457.439 256.503 457.563 256.876C458.186 256.938 458.808 257 459.493 257.062C460.551 257.187 461.546 257.311 462.605 257.373C464.285 257.436 466.277 257.809 467.584 256.689C469.015 255.507 469.326 252.273 469.824 250.469C470.136 249.225 471.941 249.723 471.629 250.905Z" fill="black"/>
<path d="M465.779 239.211C469.762 225.651 472.999 211.967 475.55 198.097C475.986 198.47 476.484 198.781 476.92 199.154C474.43 200.896 472.127 202.762 469.887 204.814C469.451 205.187 468.704 205.187 468.393 204.628C467.024 202.202 466.09 199.714 465.468 197.039C466.028 197.101 466.588 197.164 467.148 197.288C466.028 198.967 464.907 200.647 463.725 202.264C463.289 202.948 462.791 203.943 461.92 204.13C459.928 204.628 457.376 200.522 456.256 199.341C456.816 199.092 457.314 198.905 457.874 198.656C456.629 212.465 463.102 225.589 461.484 239.397C461.36 240.579 459.493 240.579 459.617 239.397C461.235 225.589 454.762 212.465 456.007 198.656C456.069 197.91 457.003 197.35 457.625 197.972C458.559 198.967 460.488 202.14 462.107 201.269C462.605 201.02 463.165 199.714 463.476 199.278C464.161 198.283 464.845 197.288 465.53 196.293C465.965 195.671 467.024 195.671 467.21 196.542C467.833 199.092 468.704 201.393 469.949 203.695C469.451 203.632 468.953 203.57 468.455 203.508C470.82 201.331 473.248 199.403 475.862 197.599C476.609 197.101 477.355 197.91 477.231 198.656C474.679 212.527 471.443 226.273 467.459 239.771C467.21 240.89 465.468 240.393 465.779 239.211Z" fill="black"/>
<path d="M441.318 168.801C434.348 172.657 429.617 179.25 428.31 187.15C428.124 188.332 426.319 187.834 426.505 186.652C427.875 178.38 433.041 171.289 440.385 167.246C441.443 166.561 442.377 168.179 441.318 168.801Z" fill="black"/>
<path d="M464.161 258.182C466.588 278.086 460.364 297.741 462.418 317.646C462.542 318.827 460.675 318.827 460.551 317.646C458.497 297.741 464.721 278.086 462.293 258.182C462.169 257 464.036 257 464.161 258.182Z" fill="black"/>
<path d="M264.99 198.375C261.754 198.313 258.58 198.437 255.343 198.313C252.356 198.188 248.683 198.064 246.132 196.26C243.331 194.27 243.829 191.782 243.953 188.858C244.078 185.437 244.14 182.016 244.202 178.533C244.327 173.433 242.833 170.074 238.787 166.839C234.555 163.481 230.323 160.557 226.837 156.39C211.028 137.481 212.149 109.367 228.518 91.1419C244.264 73.6637 275.26 66.3241 294.492 82.4339C312.48 97.4863 315.654 125.601 305.695 146.002C299.783 158.194 289.7 166.466 277.189 171.193C275.26 171.878 273.268 172.873 272.335 174.801C271.214 177.289 272.148 180.648 272.335 183.26C272.646 186.743 273.206 190.475 272.895 194.021C272.584 198.748 268.663 198.437 264.99 198.375C263.808 198.375 263.808 200.241 264.99 200.241C269.036 200.303 273.455 200.427 274.638 195.7C275.384 192.715 274.762 189.231 274.575 186.246C274.326 182.763 272.272 175.921 276.007 173.806C278.372 172.437 281.235 171.878 283.725 170.696C286.65 169.327 289.389 167.648 291.94 165.72C296.608 162.237 300.592 158.007 303.828 153.218C317.272 133.251 316.463 103.769 300.343 85.5439C283.413 66.3863 253.04 68.9365 234.119 83.6779C214.763 98.6681 207.979 126.098 219.119 148.055C222.169 154.088 226.464 159.562 231.692 163.916C234.119 165.969 236.92 167.524 239.223 169.701C242.584 172.873 242.46 176.605 242.335 180.897C242.211 184.629 241.899 188.361 241.899 192.093C241.899 194.332 242.833 196.011 244.638 197.442C249.866 201.671 258.891 200.179 265.053 200.303C266.235 200.241 266.235 198.375 264.99 198.375Z" fill="black"/>
<path d="M243.766 177.227C253.227 175.796 262.75 176.232 272.023 178.471C273.206 178.782 273.704 176.978 272.521 176.667C262.874 174.303 253.04 173.93 243.268 175.423C242.086 175.61 242.584 177.413 243.766 177.227Z" fill="black"/>
<path d="M243.518 183.634C253.476 184.629 263.434 185.064 273.455 185.002C274.638 185.002 274.638 183.136 273.455 183.136C263.434 183.198 253.476 182.701 243.518 181.768C242.335 181.643 242.335 183.509 243.518 183.634Z" fill="black"/>
<path d="M244.265 190.724C254.099 191.471 263.995 191.657 273.891 191.409C275.073 191.346 275.073 189.48 273.891 189.543C263.995 189.854 254.161 189.605 244.265 188.858C243.082 188.734 243.082 190.6 244.265 190.724Z" fill="black"/>
<path d="M249.866 199.557C250.551 201.734 250.364 204.533 251.858 206.399C253.289 208.14 255.717 207.954 257.771 208.016C259.949 208.078 262.999 208.7 264.99 207.518C267.293 206.088 267.48 202.542 267.853 200.179C268.04 198.997 266.235 198.499 266.048 199.681C265.737 201.858 265.737 204.595 263.621 205.714C261.816 206.647 259.762 206.274 257.771 206.212C255.53 206.15 253.289 206.212 252.542 203.6C252.107 202.107 252.044 200.552 251.609 199.121C251.298 197.939 249.493 198.437 249.866 199.557Z" fill="black"/>
<path d="M256.215 175.547C258.829 168.394 261.256 161.179 263.683 153.964C266.173 146.811 269.223 139.72 271.028 132.318C271.899 128.586 273.704 121.62 268.849 119.691C263.31 117.514 260.509 124.294 259.513 128.275C260.073 128.213 260.634 128.151 261.194 128.026C259.202 124.916 256.526 119.256 251.733 121.246C247.19 123.175 250.613 130.017 251.858 132.94C257.771 146.811 262.19 160.93 264.555 175.858C264.741 177.04 266.546 176.542 266.36 175.361C264.741 165.035 262.19 154.959 258.704 145.131C257.024 140.404 254.97 135.863 253.103 131.198C252.293 129.208 249.306 121.868 254.41 122.926C257.086 123.486 258.268 126.969 259.576 128.959C260.011 129.581 261.069 129.581 261.256 128.71C261.941 125.974 262.874 121.868 266.173 121.246C271.277 120.313 270.156 126.72 269.658 129.457C268.663 134.744 266.671 139.782 264.804 144.82C261.132 154.835 257.957 164.973 254.285 174.925C253.974 176.169 255.779 176.667 256.215 175.547Z" fill="black"/>
<path d="M257.522 207.643C255.032 216.786 253.725 226.241 253.912 235.695C254.099 245.336 256.09 254.479 258.455 263.747C260.447 271.771 261.754 280.23 261.318 288.503C260.945 296.029 259.265 303.555 258.269 311.019C258.082 312.201 259.949 312.201 260.136 311.019C261.132 303.742 262.688 296.527 263.123 289.187C263.621 281.723 262.625 273.948 261.007 266.608C258.829 256.781 256.153 247.451 255.779 237.374C255.406 227.485 256.65 217.595 259.265 208.078C259.638 207.021 257.833 206.523 257.522 207.643Z" fill="black"/>
<path d="M560.348 217.943C563.585 217.881 566.759 218.005 569.995 217.881C572.983 217.757 576.655 217.632 579.207 215.828C582.008 213.838 581.51 211.35 581.385 208.427C581.261 205.006 581.199 201.585 581.136 198.101C581.012 193.001 582.506 189.642 586.551 186.408C590.784 183.049 595.016 180.126 598.501 175.958C614.31 157.049 613.19 128.935 596.821 110.71C581.074 93.232 550.079 85.8924 530.846 102.002C512.859 117.055 509.685 145.169 519.643 165.571C525.556 177.762 535.639 186.035 548.149 190.762C550.079 191.446 552.07 192.441 553.004 194.369C554.124 196.857 553.191 200.216 553.004 202.829C552.693 206.312 552.133 210.044 552.444 213.589C552.755 218.316 556.676 218.005 560.348 217.943C561.531 217.943 561.531 219.809 560.348 219.809C556.303 219.871 551.884 219.996 550.701 215.269C549.954 212.283 550.577 208.8 550.763 205.814C551.012 202.331 553.066 195.489 549.332 193.374C546.967 192.006 544.104 191.446 541.614 190.264C538.689 188.896 535.95 187.216 533.398 185.288C528.73 181.805 524.747 177.575 521.51 172.786C508.067 152.82 508.876 123.337 524.996 105.112C541.925 85.9546 572.298 88.5048 591.219 103.246C610.576 118.236 617.36 145.667 606.219 167.623C603.169 173.657 598.875 179.13 593.647 183.484C591.219 185.537 588.418 187.092 586.116 189.269C582.755 192.441 582.879 196.173 583.004 200.465C583.128 204.197 583.439 207.929 583.439 211.661C583.439 213.9 582.506 215.58 580.701 217.01C575.473 221.24 566.448 219.747 560.286 219.871C559.103 219.809 559.103 217.943 560.348 217.943Z" fill="black"/>
<path d="M581.572 196.795C572.112 195.365 562.589 195.8 553.315 198.039C552.133 198.35 551.635 196.546 552.817 196.235C562.465 193.872 572.298 193.499 582.07 194.991C583.253 195.178 582.755 196.982 581.572 196.795Z" fill="black"/>
<path d="M581.821 203.202C571.863 204.197 561.904 204.633 551.884 204.57C550.701 204.57 550.701 202.704 551.884 202.704C561.904 202.767 571.863 202.269 581.821 201.336C583.004 201.212 583.004 203.078 581.821 203.202Z" fill="black"/>
<path d="M581.074 210.293C571.24 211.039 561.344 211.226 551.448 210.977C550.265 210.915 550.265 209.049 551.448 209.111C561.344 209.422 571.178 209.173 581.074 208.427C582.257 208.302 582.257 210.168 581.074 210.293Z" fill="black"/>
<path d="M575.473 219.125C574.788 221.302 574.975 224.101 573.481 225.967C572.049 227.709 569.622 227.522 567.568 227.584C565.39 227.646 562.34 228.268 560.348 227.087C558.045 225.656 557.859 222.111 557.485 219.747C557.298 218.565 559.103 218.068 559.29 219.249C559.601 221.426 559.601 224.163 561.717 225.283C563.522 226.216 565.576 225.843 567.568 225.78C569.809 225.718 572.049 225.78 572.796 223.168C573.232 221.675 573.294 220.12 573.73 218.69C574.041 217.508 575.846 218.005 575.473 219.125Z" fill="black"/>
<path d="M569.124 195.116C566.51 187.962 564.083 180.747 561.655 173.532C559.166 166.379 556.116 159.288 554.311 151.886C553.44 148.154 551.635 141.188 556.489 139.26C562.029 137.083 564.83 143.863 565.825 147.843C565.265 147.781 564.705 147.719 564.145 147.595C566.137 144.485 568.813 138.824 573.605 140.815C578.149 142.743 574.726 149.585 573.481 152.508C567.568 166.379 563.149 180.498 560.784 195.426C560.597 196.608 558.792 196.111 558.979 194.929C560.597 184.604 563.149 174.527 566.634 164.7C568.315 159.972 570.369 155.432 572.236 150.767C573.045 148.776 576.033 141.437 570.929 142.494C568.253 143.054 567.07 146.537 565.763 148.528C565.327 149.15 564.269 149.15 564.083 148.279C563.398 145.542 562.464 141.437 559.166 140.815C554.062 139.882 555.182 146.288 555.68 149.025C556.676 154.312 558.668 159.35 560.535 164.389C564.207 174.403 567.381 184.541 571.054 194.493C571.365 195.737 569.56 196.235 569.124 195.116Z" fill="black"/>
<path d="M567.817 227.211C570.307 236.355 571.614 245.809 571.427 255.263C571.24 264.904 569.249 274.048 566.883 283.316C564.892 291.339 563.585 299.799 564.02 308.071C564.394 315.597 566.074 323.124 567.07 330.588C567.257 331.769 565.39 331.769 565.203 330.588C564.207 323.31 562.651 316.095 562.215 308.755C561.718 301.291 562.713 293.516 564.332 286.177C566.51 276.349 569.186 267.019 569.56 256.943C569.933 247.053 568.688 237.163 566.074 227.647C565.701 226.589 567.506 226.092 567.817 227.211Z" fill="black"/>
<path d="M23.4137 268.991C23.1025 263.952 20.6129 259.536 16.6295 256.364C14.0777 254.374 11.4014 252.694 9.22297 250.268C6.85785 247.656 4.9284 244.608 3.6836 241.374C-1.23336 228.561 4.24376 212.7 13.2063 202.934C18.31 197.398 25.7788 195.159 33.0609 194.537C39.9073 193.915 47.3761 194.599 53.4134 198.207C65.7369 205.671 70.4672 222.714 64.4921 235.527C61.3801 242.307 56.2142 247.905 50.7993 252.943C48.5587 255.058 44.8865 257.173 43.5172 260.034C42.3969 262.397 43.5172 265.383 44.2641 267.684C44.6376 268.804 46.4425 268.306 46.0691 267.187C45.5712 265.632 44.6998 263.704 44.9488 262.024C45.26 259.723 47.8118 258.168 49.3678 256.799C52.2931 254.187 55.0939 251.512 57.708 248.651C62.0025 243.862 65.8614 238.45 67.7908 232.23C71.5875 219.915 66.5461 205.36 56.0897 197.772C45.6956 190.245 28.4551 190.93 17.6254 197.15C11.8371 200.508 7.97817 206.293 5.05289 212.202C1.94089 218.36 -0.175277 225.14 0.0114432 232.044C0.198163 238.637 2.56329 245.106 6.73337 250.268C11.9615 256.737 21.1108 259.598 21.6087 269.053C21.6087 270.235 23.4759 270.235 23.4137 268.991Z" fill="black"/>
<path d="M22.7291 268.866C21.1109 269.55 19.6171 270.732 21.0486 272.536C22.3557 274.153 25.032 274.277 26.8992 274.464C33.1855 275.148 40.3431 275.521 46.4426 273.593C47.8741 273.158 49.7413 272.411 50.0525 270.732C50.3637 268.866 48.6832 267.56 47.065 267.186C43.4551 266.253 38.7871 267.435 35.1149 267.684C31.0693 267.933 26.7747 267.995 22.7291 268.866C21.5466 269.115 22.0445 270.918 23.2271 270.67C27.8328 269.737 32.812 269.737 37.48 269.363C39.6584 269.239 41.7746 268.99 43.953 268.928C45.1978 268.866 49.1811 269.177 47.065 271.416C46.6293 271.851 45.509 271.976 44.9488 272.1C41.4634 272.909 37.7912 273.095 34.2435 273.095C32.1896 273.095 30.1357 272.909 28.0818 272.722C27.3971 272.66 26.6502 272.598 25.9656 272.473C25.9656 272.473 21.6088 271.354 23.3515 270.67C24.3474 270.172 23.8494 268.368 22.7291 268.866Z" fill="black"/>
<path d="M22.5422 272.473C19.9281 273.655 18.4344 276.454 21.9198 277.636C24.4094 278.445 27.5214 278.258 30.0733 278.382C33.4342 278.507 36.8574 278.507 40.2184 278.382C43.0814 278.258 47.6872 278.88 50.1768 277.076C52.7909 275.148 50.488 272.411 48.4963 271.167C47.5005 270.545 46.5669 272.162 47.5627 272.784C49.1187 273.78 49.9278 275.459 47.8117 276.019C46.8781 276.268 45.9445 276.268 45.0109 276.33C42.8947 276.454 40.7786 276.516 38.6002 276.579C35.5504 276.641 32.5006 276.641 29.5131 276.516C27.9571 276.454 26.4633 276.33 24.9073 276.205C24.0982 276.205 23.2269 276.081 22.4177 275.832C22.231 274.837 22.6045 274.215 23.4758 274.091C24.5961 273.593 23.6625 271.976 22.5422 272.473Z" fill="black"/>
<path d="M22.3557 276.641C20.0528 278.694 21.6711 281.119 24.2851 281.804C28.7664 282.985 33.9323 281.99 38.4136 281.866C42.0236 281.741 47.4384 282.737 50.7994 280.871C53.289 279.502 53.4757 276.89 51.0484 275.459C49.9903 274.837 49.0567 276.454 50.1148 277.076C50.426 278.631 50.0525 279.44 48.87 279.564C48.1853 279.689 47.5007 279.813 46.816 279.875C46.0692 279.938 45.26 279.938 44.5132 279.938C42.148 280 39.7829 279.938 37.4178 280.062C35.0527 280.186 32.7498 280.373 30.3847 280.373C29.5755 280.373 28.7664 280.311 27.9573 280.311C27.7083 280.311 21.6088 279.875 23.7872 278.009C24.5963 277.201 23.2893 275.832 22.3557 276.641Z" fill="black"/>
<path d="M24.2228 280.498C21.9199 281.555 21.8577 284.914 23.9116 286.22C25.4676 287.216 27.4593 287.029 29.202 286.967C32.4385 286.905 35.675 286.718 38.9737 286.594C42.2102 286.469 45.5712 286.594 48.7454 286.283C50.0525 286.158 51.7329 285.972 52.791 285.039C54.5337 283.421 53.4757 280.498 51.5462 279.627C50.4881 279.13 49.4923 280.747 50.6126 281.244C52.2931 282.053 51.2972 283.732 50.1147 284.23C49.0566 284.665 47.4384 284.479 46.318 284.541C44.0774 284.603 41.8368 284.665 39.5961 284.79C37.3555 284.914 35.1148 284.976 32.9364 285.101C31.6916 285.163 30.5091 285.163 29.2643 285.225C28.8286 285.225 28.4552 285.225 28.0195 285.225C26.2767 285.598 25.2809 284.603 25.2187 282.24C26.2767 281.618 25.2809 280 24.2228 280.498Z" fill="black"/>
<path d="M31.6296 268.306C30.8827 260.842 29.3889 253.565 26.9615 246.474C25.9035 243.364 24.0363 235.9 19.306 236.709C17.8745 236.957 16.443 238.388 16.1318 239.819C15.6339 242.12 17.8745 243.799 19.6795 244.67C23.974 246.785 29.7624 246.163 33.0611 242.618C34.866 240.689 36.4843 235.34 32.6876 234.469C28.5798 233.474 27.086 237.393 29.0155 240.378C31.6296 244.484 38.1025 244.795 42.3971 244.048C45.8203 243.426 47.3763 240.316 44.9489 237.393C40.8411 232.417 36.9199 239.819 36.3598 243.24C34.9905 251.388 34.9905 259.971 34.9905 268.182C34.9905 269.364 36.8577 269.364 36.8577 268.182C36.8577 263.641 36.9822 259.101 37.2312 254.622C37.4801 250.579 37.4179 246.101 38.476 242.182C38.9739 240.441 42.3348 234.718 43.9531 239.445C44.9489 242.307 41.2768 242.307 39.5963 242.369C37.8536 242.369 35.9241 242.431 34.1814 241.871C32.8743 241.436 31.3806 240.627 30.6337 239.445C30.0113 238.512 28.891 235.776 31.754 236.273C34.5548 236.771 32.4387 240.627 31.3806 241.622C29.8246 243.177 27.5217 244.048 25.3433 244.11C23.3516 244.173 20.0529 243.613 18.6836 241.871C17.0654 239.756 19.3683 238.326 20.9865 239.01C21.9201 239.383 22.7292 241.063 23.1027 241.933C26.8993 250.082 28.7665 259.474 29.6379 268.368C29.8868 269.488 31.754 269.488 31.6296 268.306Z" fill="black"/>
<path d="M35.3639 285.598C34.8038 289.952 35.5506 293.684 37.0444 297.727C39.0983 303.325 36.7332 307.679 33.6834 312.344C33.061 313.339 34.6793 314.272 35.3017 313.277C37.729 309.483 40.4054 305.253 39.783 300.588C39.4718 298.411 38.4759 296.483 37.8535 294.431C36.9822 291.507 36.8577 288.584 37.2311 285.598C37.4178 284.416 35.5506 284.416 35.3639 285.598Z" fill="black"/>
<defs>
<filter id="filter0_f_99_371" x="308.126" y="0.112305" width="166.869" height="166.869" filterUnits="userSpaceOnUse" color-interpolation-filters="sRGB">
<feFlood flood-opacity="0" result="BackgroundImageFix"/>
<feBlend mode="normal" in="SourceGraphic" in2="BackgroundImageFix" result="shape"/>
<feGaussianBlur stdDeviation="14" result="effect1_foregroundBlur_99_371"/>
</filter>
<filter id="filter1_f_99_371" x="109.266" y="44.1084" width="149.271" height="149.271" filterUnits="userSpaceOnUse" color-interpolation-filters="sRGB">
<feFlood flood-opacity="0" result="BackgroundImageFix"/>
<feBlend mode="normal" in="SourceGraphic" in2="BackgroundImageFix" result="shape"/>
<feGaussianBlur stdDeviation="14" result="effect1_foregroundBlur_99_371"/>
</filter>
<filter id="filter2_f_99_371" x="399.637" y="132.1" width="131.672" height="131.672" filterUnits="userSpaceOnUse" color-interpolation-filters="sRGB">
<feFlood flood-opacity="0" result="BackgroundImageFix"/>
<feBlend mode="normal" in="SourceGraphic" in2="BackgroundImageFix" result="shape"/>
<feGaussianBlur stdDeviation="14" result="effect1_foregroundBlur_99_371"/>
</filter>
</defs>
</svg>
